<svg xmlns="http://www.w3.org/2000/svg" xmlns:xlink="http://www.w3.org/1999/xlink" width="512" zoomAndPan="magnify" viewBox="0 0 384 383.999986" height="512" preserveAspectRatio="xMidYMid meet" version="1.0"><path fill="#fa862d" d="M 120.722656 274.460938 C 117.792969 274.460938 115.410156 272.082031 115.410156 269.148438 L 115.410156 251.441406 C 115.410156 238.753906 125.742188 228.425781 138.429688 228.425781 C 144.582031 228.425781 150.363281 230.824219 154.707031 235.164062 C 159.050781 239.507812 161.4375 245.28125 161.4375 251.425781 L 161.4375 269.128906 C 161.4375 272.0625 159.058594 274.441406 156.125 274.441406 C 153.195312 274.441406 150.816406 272.0625 150.816406 269.128906 L 150.816406 251.425781 C 150.816406 248.121094 149.523438 245.003906 147.191406 242.664062 C 144.859375 240.320312 141.75 239.039062 138.4375 239.039062 C 131.605469 239.039062 126.046875 244.601562 126.046875 251.433594 L 126.046875 269.140625 C 126.035156 272.089844 123.65625 274.460938 120.722656 274.460938 Z M 120.722656 274.460938 " fill-opacity="1" fill-rule="nonzero"/><path fill="#fa862d" d="M 143.445312 328.207031 C 140.515625 328.207031 138.136719 325.828125 138.136719 322.894531 L 138.136719 311.339844 L 132.445312 306.414062 C 121.617188 297.042969 115.402344 283.460938 115.402344 269.140625 C 115.402344 266.207031 117.78125 263.828125 120.714844 263.828125 C 123.648438 263.828125 126.027344 266.207031 126.027344 269.140625 C 126.027344 280.371094 130.894531 291.03125 139.390625 298.371094 L 146.914062 304.882812 C 148.074219 305.886719 148.75 307.355469 148.75 308.902344 L 148.75 322.894531 C 148.757812 325.828125 146.378906 328.207031 143.445312 328.207031 Z M 143.445312 328.207031 " fill-opacity="1" fill-rule="nonzero"/><path fill="#fa862d" d="M 232.871094 328.207031 C 229.9375 328.207031 227.558594 325.828125 227.558594 322.894531 L 227.558594 308.902344 C 227.558594 307.355469 228.234375 305.886719 229.402344 304.875 C 243.875 292.433594 251.167969 273.703125 248.925781 254.773438 C 248.585938 251.859375 250.660156 249.21875 253.574219 248.871094 C 256.507812 248.519531 259.125 250.601562 259.476562 253.515625 C 262.039062 275.144531 254.101562 296.554688 238.183594 311.285156 L 238.183594 322.894531 C 238.183594 325.828125 235.804688 328.207031 232.871094 328.207031 Z M 232.871094 328.207031 " fill-opacity="1" fill-rule="nonzero"/><path fill="#fa862d" d="M 77.464844 321.972656 C 65.273438 321.972656 55.359375 312.058594 55.359375 299.867188 L 55.359375 167.617188 C 55.359375 155.425781 65.273438 145.511719 77.464844 145.511719 C 89.65625 145.511719 99.570312 155.425781 99.570312 167.617188 L 99.570312 299.875 C 99.570312 312.058594 89.65625 321.972656 77.464844 321.972656 Z M 77.464844 156.132812 C 71.136719 156.132812 65.984375 161.28125 65.984375 167.617188 L 65.984375 299.875 C 65.984375 306.203125 71.128906 311.355469 77.464844 311.355469 C 83.789062 311.355469 88.945312 306.210938 88.945312 299.875 L 88.945312 167.617188 C 88.945312 161.28125 83.800781 156.132812 77.464844 156.132812 Z M 77.464844 156.132812 " fill-opacity="1" fill-rule="nonzero"/><path fill="#fa862d" d="M 45.511719 306.691406 L 42.253906 306.691406 C 30.957031 306.691406 21.773438 297.507812 21.773438 286.210938 L 21.773438 181.28125 C 21.773438 169.984375 30.957031 160.800781 42.253906 160.800781 L 45.511719 160.800781 C 56.808594 160.800781 65.992188 169.984375 65.992188 181.28125 C 65.992188 184.214844 63.613281 186.59375 60.679688 186.59375 C 57.746094 186.59375 55.367188 184.214844 55.367188 181.28125 C 55.367188 175.851562 50.949219 171.425781 45.511719 171.425781 L 42.253906 171.425781 C 36.824219 171.425781 32.398438 175.839844 32.398438 181.28125 L 32.398438 286.21875 C 32.398438 291.648438 36.8125 296.078125 42.253906 296.078125 L 45.511719 296.078125 C 50.941406 296.078125 55.367188 291.660156 55.367188 286.21875 C 55.367188 283.285156 57.746094 280.90625 60.679688 280.90625 C 63.613281 280.90625 65.992188 283.285156 65.992188 286.21875 C 65.984375 297.507812 56.796875 306.691406 45.511719 306.691406 Z M 45.511719 306.691406 " fill-opacity="1" fill-rule="nonzero"/><path fill="#fa862d" d="M 306.453125 321.972656 C 300.558594 321.972656 295.007812 319.675781 290.839844 315.507812 C 286.664062 311.328125 284.367188 305.777344 284.367188 299.875 L 284.367188 167.617188 C 284.367188 155.425781 294.28125 145.511719 306.472656 145.511719 C 318.664062 145.511719 328.578125 155.425781 328.578125 167.617188 L 328.578125 299.875 C 328.578125 312.066406 318.664062 321.980469 306.472656 321.980469 C 306.460938 321.972656 306.453125 321.972656 306.453125 321.972656 Z M 306.472656 156.132812 C 300.144531 156.132812 294.988281 161.28125 294.988281 167.617188 L 294.988281 299.875 C 294.988281 302.945312 296.179688 305.832031 298.347656 308 C 300.515625 310.167969 303.390625 311.355469 306.453125 311.355469 C 306.453125 311.355469 306.460938 311.355469 306.460938 311.355469 C 312.796875 311.355469 317.945312 306.210938 317.945312 299.875 L 317.945312 167.617188 C 317.953125 161.28125 312.796875 156.132812 306.472656 156.132812 Z M 306.472656 156.132812 " fill-opacity="1" fill-rule="nonzero"/><path fill="#fa862d" d="M 341.691406 306.691406 L 338.433594 306.691406 C 327.136719 306.691406 317.953125 297.507812 317.953125 286.210938 C 317.953125 283.277344 320.332031 280.898438 323.265625 280.898438 C 326.195312 280.898438 328.578125 283.277344 328.578125 286.210938 C 328.578125 291.640625 332.992188 296.066406 338.433594 296.066406 L 341.691406 296.066406 C 347.121094 296.066406 351.546875 291.648438 351.546875 286.210938 L 351.546875 181.28125 C 351.546875 175.851562 347.128906 171.425781 341.691406 171.425781 L 338.433594 171.425781 C 333.003906 171.425781 328.578125 175.839844 328.578125 181.28125 C 328.578125 184.214844 326.195312 186.59375 323.265625 186.59375 C 320.332031 186.59375 317.953125 184.214844 317.953125 181.28125 C 317.953125 169.984375 327.136719 160.800781 338.433594 160.800781 L 341.691406 160.800781 C 352.988281 160.800781 362.171875 169.984375 362.171875 181.28125 L 362.171875 286.21875 C 362.164062 297.507812 352.976562 306.691406 341.691406 306.691406 Z M 341.691406 306.691406 " fill-opacity="1" fill-rule="nonzero"/><path fill="#fa862d" d="M 161.28125 218.648438 L 161.105469 218.648438 C 158.175781 218.648438 155.792969 216.269531 155.792969 213.335938 C 155.792969 210.40625 158.175781 208.027344 161.105469 208.027344 L 161.28125 208.027344 C 164.214844 208.027344 166.59375 210.40625 166.59375 213.335938 C 166.59375 216.269531 164.214844 218.648438 161.28125 218.648438 Z M 161.28125 218.648438 " fill-opacity="1" fill-rule="nonzero"/><path fill="#fa862d" d="M 161.28125 218.648438 L 161.117188 218.648438 C 158.183594 218.648438 155.804688 216.269531 155.804688 213.335938 C 155.804688 210.40625 158.183594 208.027344 161.117188 208.027344 L 161.28125 208.027344 C 164.214844 208.027344 166.59375 210.40625 166.59375 213.335938 C 166.59375 216.269531 164.214844 218.648438 161.28125 218.648438 Z M 161.28125 218.648438 " fill-opacity="1" fill-rule="nonzero"/><path fill="#fa862d" d="M 289.679688 218.648438 L 254.644531 218.648438 C 251.710938 218.648438 249.332031 216.269531 249.332031 213.335938 C 249.332031 210.40625 251.703125 208.027344 254.644531 208.027344 L 289.6875 208.027344 C 292.621094 208.027344 295 210.40625 295 213.335938 C 295 216.269531 292.609375 218.648438 289.679688 218.648438 Z M 289.679688 218.648438 " fill-opacity="1" fill-rule="nonzero"/><path fill="#fa862d" d="M 197.109375 218.648438 L 196.933594 218.648438 C 194 218.648438 191.621094 216.269531 191.621094 213.335938 C 191.621094 210.40625 194 208.027344 196.933594 208.027344 L 197.101562 208.027344 C 200.03125 208.027344 202.410156 210.40625 202.410156 213.335938 C 202.410156 216.269531 200.042969 218.648438 197.109375 218.648438 Z M 197.109375 218.648438 " fill-opacity="1" fill-rule="nonzero"/><path fill="#fa862d" d="M 129.308594 218.648438 L 94.257812 218.648438 C 91.324219 218.648438 88.945312 216.269531 88.945312 213.335938 C 88.945312 210.40625 91.324219 208.027344 94.257812 208.027344 L 129.308594 208.027344 C 132.242188 208.027344 134.621094 210.40625 134.621094 213.335938 C 134.621094 216.269531 132.242188 218.648438 129.308594 218.648438 Z M 129.308594 218.648438 " fill-opacity="1" fill-rule="nonzero"/><path fill="#fa862d" d="M 289.679688 259.464844 L 156.117188 259.464844 C 153.183594 259.464844 150.804688 257.085938 150.804688 254.152344 C 150.804688 251.222656 153.183594 248.84375 156.117188 248.84375 L 289.679688 248.84375 C 292.609375 248.84375 294.988281 251.222656 294.988281 254.152344 C 294.988281 257.085938 292.609375 259.464844 289.679688 259.464844 Z M 289.679688 259.464844 " fill-opacity="1" fill-rule="nonzero"/><path fill="#fa862d" d="M 120.722656 259.464844 L 94.257812 259.464844 C 91.324219 259.464844 88.945312 257.085938 88.945312 254.152344 C 88.945312 251.222656 91.324219 248.84375 94.257812 248.84375 L 120.722656 248.84375 C 123.65625 248.84375 126.035156 251.222656 126.035156 254.152344 C 126.035156 257.085938 123.65625 259.464844 120.722656 259.464844 Z M 120.722656 259.464844 " fill-opacity="1" fill-rule="nonzero"/><path fill="#fa862d" d="M 197.101562 218.648438 L 196.941406 218.648438 C 194.011719 218.648438 191.632812 216.269531 191.632812 213.335938 C 191.632812 210.40625 194.011719 208.027344 196.941406 208.027344 L 197.101562 208.027344 C 200.03125 208.027344 202.410156 210.40625 202.410156 213.335938 C 202.410156 216.269531 200.03125 218.648438 197.101562 218.648438 Z M 197.101562 218.648438 " fill-opacity="1" fill-rule="nonzero"/><path fill="#fa862d" d="M 241.523438 234.242188 C 231.367188 234.242188 223.097656 225.980469 223.097656 215.816406 L 223.097656 194.839844 C 223.097656 184.675781 231.359375 176.414062 241.523438 176.414062 C 246.445312 176.414062 251.066406 178.332031 254.550781 181.808594 C 258.027344 185.285156 259.945312 189.914062 259.945312 194.839844 L 259.945312 215.816406 C 259.945312 225.980469 251.683594 234.242188 241.523438 234.242188 Z M 241.523438 187.046875 C 237.222656 187.046875 233.71875 190.542969 233.71875 194.847656 L 233.71875 215.828125 C 233.71875 220.125 237.214844 223.628906 241.523438 223.628906 C 245.820312 223.628906 249.324219 220.132812 249.324219 215.828125 L 249.324219 194.847656 C 249.324219 190.550781 245.828125 187.046875 241.523438 187.046875 Z M 241.523438 187.046875 " fill-opacity="1" fill-rule="nonzero"/><path fill="#fa862d" d="M 212.757812 234.242188 C 201.195312 234.242188 191.789062 224.835938 191.789062 213.273438 L 191.789062 188.21875 C 191.789062 176.652344 201.195312 167.246094 212.757812 167.246094 C 224.324219 167.246094 233.730469 176.652344 233.730469 188.21875 L 233.730469 213.273438 C 233.738281 224.835938 224.324219 234.242188 212.757812 234.242188 Z M 212.757812 177.859375 C 207.050781 177.859375 202.410156 182.507812 202.410156 188.207031 L 202.410156 213.265625 C 202.410156 218.972656 207.058594 223.609375 212.757812 223.609375 C 218.457031 223.609375 223.105469 218.964844 223.105469 213.265625 L 223.105469 188.207031 C 223.113281 182.507812 218.46875 177.859375 212.757812 177.859375 Z M 212.757812 177.859375 " fill-opacity="1" fill-rule="nonzero"/><path fill="#fa862d" d="M 145.207031 234.242188 C 133.515625 234.242188 123.996094 224.726562 123.980469 213.023438 L 123.980469 187.5625 C 123.980469 175.859375 133.503906 166.332031 145.207031 166.332031 C 156.910156 166.332031 166.4375 175.859375 166.4375 187.5625 L 166.4375 213.015625 C 166.425781 224.726562 156.910156 234.242188 145.207031 234.242188 Z M 145.207031 176.957031 C 139.363281 176.957031 134.601562 181.714844 134.601562 187.5625 L 134.601562 213.015625 C 134.613281 218.863281 139.363281 223.621094 145.207031 223.621094 C 151.054688 223.621094 155.8125 218.863281 155.8125 213.015625 L 155.8125 187.5625 C 155.804688 181.714844 151.054688 176.957031 145.207031 176.957031 Z M 145.207031 176.957031 " fill-opacity="1" fill-rule="nonzero"/><path fill="#fa862d" d="M 179.109375 234.242188 C 166.261719 234.242188 155.804688 223.796875 155.804688 210.941406 L 155.804688 182.160156 C 155.804688 169.3125 166.253906 158.855469 179.109375 158.855469 C 185.332031 158.855469 191.179688 161.28125 195.585938 165.679688 C 199.984375 170.078125 202.410156 175.933594 202.410156 182.160156 L 202.410156 210.941406 C 202.410156 223.796875 191.953125 234.242188 179.109375 234.242188 Z M 179.109375 169.488281 C 172.117188 169.488281 166.425781 175.175781 166.425781 182.167969 L 166.425781 210.949219 C 166.425781 217.9375 172.117188 223.628906 179.109375 223.628906 C 186.097656 223.628906 191.789062 217.9375 191.789062 210.949219 L 191.789062 182.167969 C 191.789062 175.175781 186.097656 169.488281 179.109375 169.488281 Z M 179.109375 169.488281 " fill-opacity="1" fill-rule="nonzero"/><path fill="#fa862d" d="M 27.09375 264.160156 L 13.03125 264.160156 C 5.835938 264.160156 -0.0195312 258.304688 -0.0195312 251.109375 L -0.0195312 216.378906 C -0.0195312 209.1875 5.835938 203.332031 13.03125 203.332031 L 27.085938 203.332031 C 30.015625 203.332031 32.398438 205.710938 32.398438 208.644531 C 32.398438 211.578125 30.015625 213.957031 27.085938 213.957031 L 13.03125 213.957031 C 11.695312 213.957031 10.605469 215.042969 10.605469 216.378906 L 10.605469 251.109375 C 10.605469 252.449219 11.695312 253.535156 13.03125 253.535156 L 27.085938 253.535156 C 30.015625 253.535156 32.398438 255.914062 32.398438 258.847656 C 32.398438 261.78125 30.027344 264.160156 27.09375 264.160156 Z M 27.09375 264.160156 " fill-opacity="1" fill-rule="nonzero"/><path fill="#fa862d" d="M 370.894531 264.160156 L 356.851562 264.160156 C 353.917969 264.160156 351.539062 261.78125 351.539062 258.847656 C 351.539062 255.914062 353.917969 253.535156 356.851562 253.535156 L 370.894531 253.535156 C 372.234375 253.535156 373.320312 252.449219 373.320312 251.109375 L 373.320312 216.378906 C 373.320312 215.042969 372.234375 213.957031 370.894531 213.957031 L 356.851562 213.957031 C 353.917969 213.957031 351.539062 211.578125 351.539062 208.644531 C 351.539062 205.710938 353.917969 203.332031 356.851562 203.332031 L 370.894531 203.332031 C 378.089844 203.332031 383.945312 209.1875 383.945312 216.378906 L 383.945312 251.109375 C 383.945312 258.304688 378.089844 264.160156 370.894531 264.160156 Z M 370.894531 264.160156 " fill-opacity="1" fill-rule="nonzero"/><path fill="#fa862d" d="M 143.445312 409.015625 C 140.515625 409.015625 138.136719 406.636719 138.136719 403.707031 L 138.136719 322.894531 C 138.136719 319.960938 140.515625 317.582031 143.445312 317.582031 C 146.378906 317.582031 148.757812 319.960938 148.757812 322.894531 L 148.757812 403.707031 C 148.757812 406.636719 146.378906 409.015625 143.445312 409.015625 Z M 143.445312 409.015625 " fill-opacity="1" fill-rule="nonzero"/><path fill="#fa862d" d="M 232.871094 409.015625 C 229.9375 409.015625 227.558594 406.636719 227.558594 403.707031 L 227.558594 322.894531 C 227.558594 319.960938 229.9375 317.582031 232.871094 317.582031 C 235.804688 317.582031 238.183594 319.960938 238.183594 322.894531 L 238.183594 403.707031 C 238.183594 406.636719 235.804688 409.015625 232.871094 409.015625 Z M 232.871094 409.015625 " fill-opacity="1" fill-rule="nonzero"/><path fill="#fa862d" d="M 195.863281 143.574219 C 194.507812 143.574219 193.144531 143.058594 192.109375 142.015625 C 158.664062 108.566406 124.082031 73.984375 124.082031 38.546875 C 124.082031 17.289062 141.371094 0 162.628906 0 C 178.960938 0 188.394531 7.449219 195.863281 19.316406 C 203.332031 7.449219 212.769531 0 229.101562 0 C 250.355469 0 267.648438 17.289062 267.648438 38.546875 C 267.648438 73.984375 233.066406 108.566406 199.617188 142.007812 C 198.585938 143.058594 197.230469 143.574219 195.863281 143.574219 Z M 162.628906 10.632812 C 147.226562 10.632812 134.703125 23.15625 134.703125 38.554688 C 134.703125 68.378906 165.171875 100.007812 195.863281 130.753906 C 226.5625 100.007812 257.023438 68.378906 257.023438 38.554688 C 257.023438 23.15625 244.5 10.632812 229.101562 10.632812 C 216.023438 10.632812 208.839844 16.183594 200.613281 32.625 C 199.710938 34.421875 197.875 35.558594 195.863281 35.558594 C 193.855469 35.558594 192.007812 34.421875 191.113281 32.625 C 182.890625 16.183594 175.703125 10.632812 162.628906 10.632812 Z M 162.628906 10.632812 " fill-opacity="1" fill-rule="nonzero"/></svg>